<svg xmlns="http://www.w3.org/2000/svg" width="63" height="77" viewBox="0 0 218 77" fill="none">
<path d="M32.3927 1.81735C30.5064 2.8279 28.081 3.5016 26.4642 3.5016C20.064 3.5016 11.1711 7.00485 6.2531 11.4513C-1.29236 18.2557 -0.349176 27.0812 7.93736 27.0812C9.15002 27.0812 10.5648 26.7443 11.1038 26.4075C11.9122 25.8685 11.8448 25.7338 10.6995 25.7338C8.13947 25.7338 5.71414 23.2411 5.71414 20.6136C5.71414 17.3799 7.12891 14.9545 11.1038 11.3839C14.7417 8.08277 19.9966 5.72482 25.1841 5.05111L28.2831 4.64689L26.5315 6.60063C23.3651 10.1039 20.6029 14.685 15.3481 25.1274C10.0258 35.7045 7.06154 39.612 2.88459 41.5657L0.661377 42.5763L3.35618 42.1721C7.53313 41.5657 13.0575 38.5341 15.4828 35.5024C17.9755 32.5381 19.6598 29.3717 24.1062 19.2662C26.9357 12.8661 31.5169 4.849 32.3254 4.849C32.5275 4.849 33.7401 5.25322 34.9528 5.79219C41.4877 8.48699 40.6119 16.3019 33.4033 20.142C31.7864 21.0178 29.2937 21.6915 27.8116 21.6915C26.3968 21.6915 25.2515 21.961 25.2515 22.3652C25.2515 22.7021 26.1947 23.0389 27.34 23.0389C29.8327 23.0389 33.3359 26.2727 33.3359 28.5633C33.2685 31.1907 30.9106 35.5698 28.5526 37.2541C26.1273 38.9383 20.9398 39.4773 17.0323 38.332C14.2028 37.5909 14.7417 39.0057 17.706 39.9489C21.8156 41.3636 29.159 41.0268 32.4601 39.3425C36.2328 37.3888 37.715 35.0308 37.715 30.9213C37.715 27.957 37.4455 27.418 35.1549 25.2622C33.7401 23.9821 32.6622 22.8368 32.7969 22.7695C32.9317 22.7021 34.3465 22.2305 35.896 21.7589C37.5129 21.2873 39.9382 19.9399 41.2856 18.6599C43.5088 16.6388 43.7783 16.0325 43.7783 13.0682C43.7783 10.6428 43.3741 9.29543 42.4309 8.21751C40.7466 6.39852 36.5697 4.1753 34.6833 4.1753C32.9317 4.1753 32.9317 3.16475 34.8181 1.88472C37.3781 0.0657221 35.6939 0.0657221 32.3927 1.81735Z" fill="white"/>
<path d="M114.045 10.3062C112.361 11.182 111.485 12.1252 111.149 13.54C110.879 14.8874 110.273 15.6285 109.33 15.7632C107.645 16.0327 106.837 17.6496 108.386 17.6496C108.993 17.6496 109.464 17.919 109.464 18.2559C109.464 19.0643 105.489 31.9994 104.816 33.0773C104.075 34.4921 100.774 35.5027 99.8978 34.6268C99.3588 34.0879 101.986 24.7234 105.22 15.8306C105.422 15.359 105.018 15.1569 104.277 15.2916C103.603 15.4263 101.919 15.7632 100.571 15.9653C98.4156 16.3022 98.1461 16.5043 98.7525 17.5148C99.2914 18.3906 98.9546 20.0749 97.3377 24.5213C95.7208 29.0351 94.6429 30.9215 92.5544 32.8078C89.8596 35.2332 87.4343 35.8395 86.8279 34.29C86.6932 33.8184 87.9732 29.2372 89.7922 24.1845L93.0934 14.9548L90.3312 15.4263C87.3669 15.8306 84.3353 16.8411 85.75 16.9085C87.0301 16.9759 86.6932 18.7275 83.931 26.7445C81.7078 33.0773 81.1015 34.2226 79.552 34.7616C76.1835 36.0416 76.0487 34.6268 79.0804 25.5992C80.5625 21.0181 81.8426 16.9759 81.8426 16.5716C81.8426 15.1569 75.1055 14.82 71.0633 16.0327C65.7411 17.5822 60.7557 22.7697 59.1388 28.4962C57.9935 32.4036 57.724 32.7405 54.9619 33.9531C53.2776 34.6268 50.7175 35.3679 49.168 35.6374C45.8669 36.0416 44.5869 34.9637 44.9237 31.7299C45.1258 29.8436 45.4627 29.4393 47.4838 28.9677C48.7638 28.6983 50.987 28.0919 52.3344 27.7551C57.5219 26.2729 61.901 20.6138 60.2167 17.4475C59.0714 15.359 58.3304 14.9548 55.3661 14.9548C48.6964 14.9548 41.892 21.1528 40.2078 28.7656C38.3888 37.1195 44.7216 40.0838 54.4903 35.5027L58.1283 33.8184L60.2167 35.9069C62.1031 37.7259 62.7094 37.9954 64.8653 37.6585C66.2127 37.389 68.1664 36.5806 69.177 35.8395C71.3328 34.29 71.8044 34.1553 71.3328 35.3679C70.3896 37.928 75.1055 38.3996 79.3499 36.1764C81.1015 35.3005 81.4383 35.3005 83.19 36.5806C85.6827 38.4669 89.0512 37.8606 92.2176 35.1658C93.4976 34.0205 94.5755 33.1447 94.7776 33.1447C94.9124 33.1447 95.0471 33.9531 94.9797 34.8963C94.9797 37.8606 96.7314 38.3322 100.976 36.5806L104.681 35.0984L106.096 36.5132C107.915 38.3322 111.081 38.0627 114.248 35.8395C116.471 34.2226 116.471 33.2794 114.315 34.4247C112.429 35.4353 110.34 35.3679 109.936 34.29C109.801 33.8858 110.879 29.9109 112.361 25.5319L114.989 17.5822L117.818 17.7843L120.58 17.9864L120.783 28.0246C120.917 36.8501 120.783 38.1975 119.772 39.3428C116.74 42.7113 111.553 43.5871 108.521 41.1618L106.77 39.8143V41.8355C106.77 45.8103 111.283 47.0903 116.269 44.5976C121.052 42.1049 134.863 27.3509 137.827 21.557C139.242 18.7949 139.781 14.7526 138.905 13.8768C138.636 13.6074 137.288 13.8768 136.008 14.5505C133.785 15.5611 133.65 15.7632 134.728 16.5716C135.604 17.178 135.806 17.919 135.469 19.5359C134.93 21.6918 129.541 29.9109 127.048 32.0668L125.633 33.3468L126.037 24.3192L126.509 15.2916L121.052 15.4937L115.528 15.7632L116.538 12.8663C118.155 8.35248 118.088 8.28511 114.045 10.3062ZM55.5008 17.2453C56.7135 18.6601 55.7029 21.4897 53.1429 24.0497C51.1218 26.0708 47.2143 27.6877 46.3385 26.8793C45.7321 26.2056 49.707 19.6033 51.7281 17.919C53.9513 16.0327 54.4229 15.9653 55.5008 17.2453ZM76.0487 17.5822C76.2508 17.8517 75.5098 20.9507 74.3645 24.3192C71.8718 31.6626 68.9749 35.3679 65.8758 35.0311C64.3263 34.8963 63.9221 34.4921 63.7874 32.7405C63.5179 30.3152 65.8085 23.915 67.8296 21.3549C70.3896 18.1212 75.0382 15.9653 76.0487 17.5822Z" fill="white"/>
<path d="M12.2489 56.5219C11.9795 56.724 11.7773 61.3052 11.7773 66.6274C11.7773 75.7898 11.8447 76.2614 13.1247 76.2614C14.3374 76.2614 14.4722 75.7898 14.4722 71.5454V66.8295H19.1881H23.904V71.6128C23.904 75.7898 24.0387 76.3287 25.1166 76.1266C26.1272 75.9245 26.2619 74.9139 26.2619 66.1558C26.2619 57.3977 26.1272 56.3872 25.1166 56.185C24.0387 55.9829 23.904 56.5219 23.904 60.0251V64.1347H19.1881H14.4722V60.0925C14.4722 57.1956 14.2027 56.0503 13.5963 56.0503C13.0574 56.0503 12.451 56.2524 12.2489 56.5219Z" fill="white"/>
<path d="M36.907 57.3977C33.6059 59.3514 32.4606 62.181 32.7974 67.3685C33.0669 71.3433 33.269 71.8823 35.5596 73.9708C37.5133 75.7898 38.5913 76.2614 40.7471 76.2614C46.1367 76.2614 49.3031 73.2971 49.9768 67.5032C50.92 59.2167 43.4419 53.4229 36.907 57.3977ZM45.7325 60.8336C49.3031 65.0779 47.3494 73.0276 42.4314 73.9708C36.0312 75.1161 32.1237 65.28 37.1091 60.2946C39.5344 57.8693 43.5093 58.1388 45.7325 60.8336Z" fill="white"/>
<path d="M58.0608 56.7916C57.3871 57.1958 56.5113 58.2737 56.1744 59.2843C55.0965 62.0464 56.5787 64.6065 60.3514 66.4929C62.103 67.4361 63.7199 68.7835 63.9894 69.5245C64.6631 71.613 63.7199 73.4994 61.8335 73.971C60.4188 74.3752 59.6777 74.0383 58.1282 72.2867C56.2418 70.1982 54.8944 69.9961 54.8944 71.8151C54.8944 72.2867 55.7029 73.4994 56.646 74.5099C60.0145 77.8111 65.6063 76.3963 66.7516 71.9499C67.3579 69.4572 65.6736 66.7624 62.3725 64.876C59.004 62.8549 57.8587 61.4401 58.465 59.8232C59.004 58.4085 62.7093 58.4085 63.5178 59.8232C64.0568 60.7664 64.1915 60.7664 64.9999 59.6885C67.021 57.3305 61.2272 54.9726 58.0608 56.7916Z" fill="white"/>
</svg>